<?xml version="1.0" standalone="no"?>
<!DOCTYPE svg PUBLIC "-//W3C//DTD SVG 20010904//EN"
 "http://www.w3.org/TR/2001/REC-SVG-20010904/DTD/svg10.dtd">
<svg version="1.0" xmlns="http://www.w3.org/2000/svg"
 width="1000.000000pt" height="1000.000000pt" viewBox="0 0 1000.000000 1000.000000"
 preserveAspectRatio="xMidYMid meet">
<metadata>
Created by potrace 1.14, written by Peter Selinger 2001-2017
</metadata>
<g transform="translate(0.000000,1000.000000) scale(0.100000,-0.100000)"
fill="#000000" stroke="none">
<path d="M0 5000 l0 -5000 5000 0 5000 0 0 5000 0 5000 -5000 0 -5000 0 0
-5000z m4420 1555 l0 -1085 909 -2 908 -3 -172 -455 -172 -455 -736 -3 -737
-2 0 -1085 0 -1085 -545 0 -545 0 0 1085 0 1085 -940 0 -940 0 0 460 0 460
940 0 940 0 0 1085 0 1085 545 0 545 0 0 -1085z m3380 -1545 l0 -2630 -545 0
-545 0 0 2630 0 2630 545 0 545 0 0 -2630z"/>
</g>
</svg>
