<?xml version="1.0" encoding="utf-8"?>
<!-- Generator: Adobe Illustrator 21.1.0, SVG Export Plug-In . SVG Version: 6.00 Build 0)  -->
<svg version="1.1" id="Layer_1" xmlns="http://www.w3.org/2000/svg" xmlns:xlink="http://www.w3.org/1999/xlink" x="0px" y="0px"
	 viewBox="0 0 268.8 29.4" style="enable-background:new 0 0 268.8 29.4;" xml:space="preserve">
<style type="text/css">
	.st0{filter:url(#filter-1);}
	.st1{fill:#EC1D24;}
	.st2{filter:url(#Adobe_OpacityMaskFilter);}
	.st3{fill:#FFFFFF;}
	.st4{mask:url(#mask-3_1_);fill:#EC1D24;}
</style>
<filter  filterUnits="objectBoundingBox" height="218.7%" id="filter-1" width="106.2%" x="-3.1%" y="-56.7%">
	<feOffset  dx="0" dy="2" in="SourceAlpha" result="shadowOffsetOuter1"></feOffset>
	<feGaussianBlur  in="shadowOffsetOuter1" result="shadowBlurOuter1" stdDeviation="14.5"></feGaussianBlur>
	
		<feColorMatrix  in="shadowBlurOuter1" result="shadowMatrixOuter1" type="matrix" values="0 0 0 0 0   0 0 0 0 0   0 0 0 0 0  0 0 0 0.1 0">
		</feColorMatrix>
	<feMerge>
		<feMergeNode  in="shadowMatrixOuter1"></feMergeNode>
		<feMergeNode  in="SourceGraphic"></feMergeNode>
	</feMerge>
</filter>
<title>Bain &amp; Company</title>
<desc>Created with Sketch.</desc>
<g id="Page-1">
	<g id="Bain-_x26_-Company---Desktop-HD" transform="translate(-222.000000, 0.000000)">
		<g id="Logo" class="st0">
			<g id="Bain-_x26_-Company_1_" transform="translate(250.000000, 22.000000)">
				<path id="Fill-1_1_" class="st1" d="M89.6-7.3c0-3.1,2.2-6,5.5-6c3.3,0,5.5,2.4,5.5,6c0,3.2-2.2,5.9-5.5,5.9
					C91.9-1.3,89.6-3.9,89.6-7.3 M86.4-7.3c0,5,3.9,8.7,8.7,8.7c4.9,0,8.7-3.9,8.7-8.7c0-5.2-3.7-8.8-8.7-8.8
					C90.3-16,86.4-12.1,86.4-7.3"/>
				<path id="Fill-3_1_" class="st1" d="M67.4-7.3c0,5.1,3.6,8.7,8.7,8.7c2.8,0,5.1-1.1,6.7-3.3L82.9-2l-2.4-2l-0.1,0.2
					c-0.9,1.7-2.4,2.5-4.3,2.5c-3.3,0-5.5-2.6-5.5-6c0-3.3,2.4-5.9,5.5-5.9c1.9,0,3.5,1,4.3,2.4l0.1,0.1l2.4-1.9l-0.1-0.1
					c-1.7-2-4.1-3.2-6.7-3.2C71.4-16,67.4-12.4,67.4-7.3"/>
				<polygon id="Fill-5_1_" class="st1" points="189.6,-6 189.6,1 192.7,1 192.7,-6 198.8,-15.6 195.3,-15.6 191.1,-8.9 187,-15.6 
					183.5,-15.6 				"/>
				<path id="Fill-7_1_" class="st1" d="M136.4-13.1h0.8c2.6,0,3.7,1,3.7,2.7c0,1.7-1.2,2.7-3.7,2.7c-0.4,0-0.6,0-0.8-0.1V-13.1z
					 M133.2-15.6V1h3.1v-6.2c0.2,0,0.5,0.1,0.8,0.1c4,0,6.9-1.8,6.9-5.2c0-3.3-2.4-5.3-6.9-5.3H133.2z"/>
				<polygon id="Fill-9_1_" class="st1" points="112.3,-7.9 117.4,1.4 122.5,-8 124.6,1 127.9,1 123.5,-15.9 117.5,-4.7 
					111.3,-15.9 107.2,1 110.3,1 				"/>
				<polygon id="Fill-11_1_" class="st1" points="27.2,-5.7 16.2,-15.9 16.2,1 19.2,1 19.2,-8.7 30.2,1.4 30.2,-15.6 27.2,-15.6 
									"/>
				<polygon id="Fill-13_1_" class="st1" points="5.8,-15.6 5.8,1 7.4,1 9,1 9,-15.6 				"/>
				<path id="Fill-15_1_" class="st1" d="M-8.4-5.2l2.1-4.8l2,4.8H-8.4z M1.8,1l-8.1-16.9L-14.4,1h3.2l1.6-3.5h6.4L-1.7,1H1.8z"/>
				<path id="Fill-17_1_" class="st1" d="M-24.9-8.6l0-4.5l0.6,0c2.3,0,3.4,0.6,3.4,2.3c0,1.7-1.2,2.2-3.3,2.2L-24.9-8.6z M-23.5-6
					c2.2,0,3.5,0.5,3.5,2.3c0,1.5-1.2,2.2-3.5,2.2h-1.4V-6H-23.5z M-20-7.8c1.3-0.6,2.3-1.9,2.3-3.4c0-2.9-2.3-4.3-6.3-4.3h-4V1
					l4.7,0c4.3,0,6.5-1.7,6.5-4.8C-16.8-5.8-18.1-7.2-20-7.8L-20-7.8z"/>
				<path id="Fill-19_1_" class="st1" d="M50.8-2.4c-0.5,0.6-1.5,1.3-2.6,1.3c-1.5,0-2.5-1-2.5-2.3c0-1.2,0.9-2.2,1.8-2.7
					c0,0,0.1,0,0.1,0L50.8-2.4z M47.1-11.8c0-1.2,0.8-1.9,1.9-1.9c1.1,0,1.8,0.7,1.8,1.7c0,1.1-1.1,2-2.3,2.6
					C48-9.9,47.1-10.9,47.1-11.8L47.1-11.8z M53.9,1h3.7c0,0-2.8-3.2-3.2-3.7c0.4-0.5,2.8-4.2,2.8-4.2l-2.9,0l-1.5,2.2l-2.6-3
					c2.2-1.2,3.6-2.8,3.6-4.5c0-2.3-2-3.9-4.6-3.9c-2.9,0-4.8,1.7-4.8,4.1c0,1.7,1.1,3.1,1.8,3.9c-1.8,1-3.3,2.4-3.3,4.8
					c0,2.6,2.1,4.6,5.2,4.6c1.8,0,3.4-0.6,4.6-2L53.9,1z"/>
				<polygon id="Fill-21_1_" class="st1" points="176.7,-5.7 165.7,-15.9 165.7,1 168.8,1 168.8,-8.7 179.8,1.4 179.8,-15.6 
					176.7,-15.6 				"/>
				<path id="Fill-23_1_" class="st1" d="M151.5-5.2l2.1-4.8l2,4.8H151.5z M161.7,1l-8.1-16.9L145.5,1h3.2l1.6-3.5h6.4l1.5,3.5
					H161.7z"/>
				<g id="Group-27_1_" transform="translate(238.894009, 0.807512)">
					<defs>
						<filter id="Adobe_OpacityMaskFilter" filterUnits="userSpaceOnUse" x="-27.6" y="-22.8" width="29.5" height="29.4">
							<feColorMatrix  type="matrix" values="1 0 0 0 0  0 1 0 0 0  0 0 1 0 0  0 0 0 1 0"/>
						</filter>
					</defs>
					<mask maskUnits="userSpaceOnUse" x="-27.6" y="-22.8" width="29.5" height="29.4" id="mask-3_1_">
						<g class="st2">
							<polygon id="path-2_1_" class="st3" points="-12.9,6.6 1.9,6.6 1.9,-22.8 -12.9,-22.8 -27.6,-22.8 -27.6,6.6 							"/>
						</g>
					</mask>
					<path id="Fill-25_1_" class="st4" d="M1.9-8.1C1.9,0-4.7,6.6-12.9,6.6C-21,6.6-27.6,0-27.6-8.1c0-8.1,6.6-14.7,14.7-14.7
						c0.8,0,1.6,0.1,2.3,0.2l-1.3,1.6c-0.3,0-0.7,0-1.1,0c-6.9,0-12.4,5.4-12.4,12.1c0,6.7,5.6,12.1,12.4,12.1
						C-6,3.2-0.4-2.2-0.4-8.9c0-5.1-3.3-9.5-7.9-11.3l-0.4-2C-2.7-20.5,1.9-14.8,1.9-8.1L1.9-8.1z M-7.7-7.4l-2.7-12l-7.4,9.6
						L-7.7-7.4z"/>
				</g>
			</g>
		</g>
	</g>
</g>
</svg>
