<svg width="345" height="76" viewBox="0 0 345 76" fill="none" xmlns="http://www.w3.org/2000/svg">
<path d="M214.343 61.667C222.792 61.667 228.483 57.5539 229.817 51.2174L221.057 50.6393C220.101 53.2406 217.656 54.5968 214.499 54.5968C209.763 54.5968 206.761 51.462 206.761 46.3706V46.3483H230.017V43.747C230.017 32.1413 222.992 26.4051 213.965 26.4051C203.916 26.4051 197.401 33.542 197.401 44.0805C197.401 54.9081 203.827 61.667 214.343 61.667ZM206.761 40.4788C206.961 36.5879 209.918 33.4753 214.121 33.4753C218.234 33.4753 221.08 36.4101 221.102 40.4788H206.761ZM244.684 61.6448C249.731 61.6448 252.999 59.4437 254.667 56.2643H254.934V61H263.916V37.9664C263.916 29.829 257.024 26.4051 249.42 26.4051C241.238 26.4051 235.858 30.3182 234.546 36.5435L243.306 37.2549C243.95 34.9872 245.974 33.3197 249.375 33.3197C252.599 33.3197 254.444 34.9427 254.444 37.7441V37.8775C254.444 40.0786 252.11 40.3676 246.174 40.9457C239.415 41.5682 233.345 43.836 233.345 51.462C233.345 58.2208 238.17 61.6448 244.684 61.6448ZM247.397 55.1082C244.484 55.1082 242.394 53.752 242.394 51.1507C242.394 48.4827 244.595 47.1709 247.93 46.7041C249.998 46.415 253.377 45.9259 254.511 45.17V48.794C254.511 52.3735 251.554 55.1082 247.397 55.1082ZM279.483 15.4664H270.012V61H279.483V15.4664ZM303.982 26.8498H297.557V18.668H288.086V26.8498H283.417V33.9644H288.086V51.751C288.041 58.4432 292.599 61.7559 299.469 61.4669C301.915 61.378 303.649 60.8888 304.605 60.5776L303.115 53.5296C302.648 53.6186 301.648 53.8409 300.759 53.8409C298.869 53.8409 297.557 53.1294 297.557 50.5059V33.9644H303.982V26.8498ZM319.105 41.2569C319.127 36.8547 321.818 34.2757 325.686 34.2757C329.532 34.2757 331.8 36.7436 331.778 40.9457V61H341.249V39.2559C341.272 31.252 336.558 26.4051 329.444 26.4051C324.263 26.4051 320.795 28.8508 319.238 32.875H318.838V15.4664H309.634V61H319.105V41.2569Z" fill="#319997"/>
<path d="M137.264 41.7244H175.74L178.74 33.7871H137.264V41.7244Z" fill="#319997"/>
<path d="M192.251 15H182.78V60.5336H192.251V15Z" fill="#319997"/>
<path d="M163 15H153.529V60.5336H163V15Z" fill="#319997"/>
<path d="M20.0988 61C33.9723 61 42.3765 52.418 42.3765 38.1887C42.3765 24.004 33.9723 15.4664 20.2322 15.4664H3.95751V61H20.0988ZM13.5845 52.7515V23.7149H19.7209C28.2584 23.7149 32.7717 28.0726 32.7717 38.1887C32.7717 48.3493 28.2584 52.7515 19.6986 52.7515H13.5845ZM48.2556 61H57.8826V44.8587H64.9083L73.5348 61H84.1622L74.4908 43.3024C79.6711 41.0791 82.5392 36.5657 82.5392 30.3404C82.5392 21.2915 76.5585 15.4664 66.22 15.4664H48.2556V61ZM57.8826 37.1215V23.337H64.3747C69.933 23.337 72.6232 25.8048 72.6232 30.3404C72.6232 34.8538 69.933 37.1215 64.4191 37.1215H57.8826ZM88.0904 61H118.861V53.0627H97.7174V42.1907H117.194V34.2535H97.7174V23.4037H118.772V15.4664H88.0904V61Z" fill="#319997"/>
</svg>
